<svg xmlns="http://www.w3.org/2000/svg" data-name="Layer 1" viewBox="0 0 400 500" x="0px" y="0px"><title>Lanniester</title><path d="M171.31,91.7h-.37v0A2.23,2.23,0,0,0,171.31,91.7Z"/><path d="M239,153.25c.14,0,.25,0,.39,0h-1.14C238.52,153.23,238.77,153.25,239,153.25Z"/><path d="M339.45,100.69a12.83,12.83,0,0,0,1-19.13,12.88,12.88,0,0,1-5.37,13.5L322.47,83.4A12.84,12.84,0,0,0,322.61,65c2.76,12-12.33,20.73-21.27,12a12.54,12.54,0,0,0,2.54,5.17l-3.44.36a11.61,11.61,0,0,0-13.87-.73,8.69,8.69,0,0,1,10.36,6c-14.06.65-26.78,10.61-32.77,23-8.16,16.93-.57,34.55,7.53,49.89C254.8,158.91,245,180.39,257.46,192c-6.84-8.22-1.81-21.11,8.79-22.5l14.82,14.3c7.53,7.27,10.33,17.09,11.26,27.56.78,8.89-.4,17.59-6,24.73-9.08,11.51-23.47,11.49-34.74,3.14.77-10.89-6.41-22.71-9.81-33-6.21-18.73-12.32-36.63-9.23-56.83,3.88,7.24,15.46,3,13.78-5-2.69,4.7-6.5.53-6.89-2.89s0-7.18,0-10.68h0c.1,6,8.22,8.61,11.72,3.59a7.31,7.31,0,0,1-5.74-10.13c-.31,0-.86-1-.86-1,7.58-1.52,11.91-11.06,4.56-16.19a10.37,10.37,0,0,0,6.43-3.88c-4.24-.53-7.66-4.45-8.33-8.52a10.45,10.45,0,0,0,6.37-6.64c-2.92.73-6.46-.57-8.64-2.54a10.31,10.31,0,0,0,8-6c-4.61.58-9.13-3.06-10.44-7.29a5.75,5.75,0,0,0-1.77-5.92c-.09,3.79-4.64,6.51-7.74,3.92,2.86-1.77,7.05-9.05,1.39-10.29.48,3-1.76,6.3-4.38,7.61a7,7,0,0,0,1.55-3.15c1-4.25-2.77-9.85-7.55-7.53,2.71,1.67,3.6,5.48,2.48,8.35l-.11-.12h-20s-.2,7-20.4,7c0,0-1.83,11.39,4.23,15.8,2.47-5.85,8.71-7.43,8.87.54h-17c-1.81,0-4.43.5-6.2,0-5.62-1.58-2.74-8.62,1.38-6.21-3.88-8-16.16-1.23-11.56,6.38,2,3.39,5.61,3.14,9,3.15,8.1,0,16.21,0,24.31,0-.42,5-7.23,1.11-10.26.16A8.79,8.79,0,0,0,186,100h12.67c-.86,6.17-4.34,8.33-10.07,7.76-6.92-.69-12.77-.44-18.17,4.51L145.49,80.91c0-8.79,1.88-19.81-.27-28.38a6,6,0,0,0-3.53-7.93,6,6,0,0,1,.56,3.8,8,8,0,0,0-5.92-1.26,6,6,0,0,0-7.74-5,6,6,0,0,1,2.89,7.69,7.71,7.71,0,0,0-5.16.46,6.1,6.1,0,0,0-8.8,1.28A6.24,6.24,0,0,1,123,53.21c-3.16,4.9.82,13,7.16,11.84v.43a11.45,11.45,0,0,0-4.56,1.79c3.2-.33,4.67,3.8,2.29,5.74-2.08,1.69-5.71.17-5.26-2.81-5.28,7.28-.43,13.13,5.12,17.56h0c4.12,2.95-6.2,3.35-6.22,3.35-4.49,1.5-8.66,6.53-8,11.5.55-9.43,14-11,17-2.16s-9,15.55-15,8.23a11.73,11.73,0,0,0,13.56,4.45c3.85-1.37,4.18-4.5,6.88-6.59,6.09-4.73,4.72,6.15,4.72,9.4a8.88,8.88,0,0,0-7.11,13.72c-4.3-7,6.64-13.45,10.62-6.28-1.12-2.8,3-4.95,4.58-2.27,1.67,2.87-3,5.57-4.5,2.44,3.12,6-5,11.93-9.82,7.2a8.84,8.84,0,0,0,12.88-.06l0,.26h6.16a6.33,6.33,0,0,1-6.95,2.15,7.24,7.24,0,0,0,10.25,4.46v3.3c-3-1.42-6.73,1.2-6.8,4.45a5.08,5.08,0,0,1,5.77.72c-3.26,5.63-13.6,1.9-12.21-4.68a6.18,6.18,0,0,0,3.78,9.72c-17.29,15-36.51-4.53-55-1.65-3.31-2.88-9.27-1.06-9.78,3.55,3.53-2.6,9-.52,9.49,4a7.5,7.5,0,0,0-1.24,1.4c-4.44-4.42-10.81,3.3-8.39,7.88a6,6,0,0,1,7.09-4.15,7.74,7.74,0,0,0,1.34,5,6.09,6.09,0,0,0,2.73,8.45,6.17,6.17,0,0,1,.64-5.69,7.8,7.8,0,0,0,7.22-.66h13.2a26.83,26.83,0,0,1-10.87,4.06c-1.17,8.79,18.22,3,19.78-3.65a5.89,5.89,0,0,1-.62,7.92,6,6,0,0,0,8-3.6c1.14,5.58,8.73,7,12.11,2.63-3.51-.88-8-8.32-1.77-8.72-.49,6.38,6.65,10.9,12.15,7.26a4.74,4.74,0,0,1,3.55-7.62c4.66-.13,6.61,6.14,2.7,8.65,3,3,6.44-6.49,7.08-6.95,4.79-3.41,2.85,3.46,1.52,5.73,2.66-.18,5.32-3.46,6.36-7.92l38.59,51.91a35.6,35.6,0,0,0-29.93-7.89,13.22,13.22,0,0,0-11.26.42,13.08,13.08,0,0,1,5.4,1.24,33,33,0,0,0-5.55,2.68,13,13,0,0,0-10.95.55,13.12,13.12,0,0,1,7,2.15c-1.7,1.37-8.27,6.63-8.27,9.36-7,7.12-19.32.58-17.35-9.24a12.75,12.75,0,0,0,8.48,18.55,14.15,14.15,0,0,1-9.63,6.64,14.15,14.15,0,0,0,13.3,2.15,36.43,36.43,0,0,0,.73,7.73,3,3,0,0,0-1.57,5,3.05,3.05,0,0,1,1.94-3.4c.14.56.31,1.13.47,1.69a3,3,0,0,0-.85,4.66,3,3,0,0,1,1.37-3.13c.26.7.53,1.4.82,2.08a3,3,0,0,0-.56,4.48,3,3,0,0,1,1.24-3,32.65,32.65,0,0,0,4,6.32c-14.08,4.16-29.6,7.38-33.77,23.91a12.35,12.35,0,0,1,4.56-1.61,12.68,12.68,0,0,0,1.65,10.85,12.73,12.73,0,0,1,2.33-10.83h0a11.79,11.79,0,0,1,2.8-2.66,12.83,12.83,0,0,0,4.52,13.34L156,289.09c2.66,2.66,2.15,7,.66,10.19h0a12.31,12.31,0,0,1-3.18,4.25,12.84,12.84,0,0,0,9.08-5.51c6.39-3.12,11.34-9.55,13.84-16.13a1,1,0,0,1,.14.15c-.55,2.72,1,10.21,4.87,10.21-1.08-6.19,4.87-12,11-10.83,0,0,0,.06,0,.1.69,0,.2-.15,1,.11a12,12,0,0,1,.1,8.1,9.62,9.62,0,0,0,.14-11.67,12.08,12.08,0,0,0-6.25-12.85,21.37,21.37,0,0,1,3-11.15,6.37,6.37,0,0,0,.59,1.2,10.92,10.92,0,0,1,5.18-4.91,5.39,5.39,0,0,1-2.47-.8,26.88,26.88,0,0,1,2.93-2.62,5.41,5.41,0,0,1,3.4,2.2h0a5.43,5.43,0,0,0,1.88-5.21,21.91,21.91,0,0,1,5.94-1.53,33.48,33.48,0,0,0-6.81,15.55,3.18,3.18,0,0,0-2.25,5.18,3.17,3.17,0,0,1,1.94-2.31,28.58,28.58,0,0,0,.17,6.6,3.19,3.19,0,0,0-2.44,5.2,3.14,3.14,0,0,1,2.87-2.52c.16.77.35,1.53.56,2.29a14.68,14.68,0,0,0-.58,18.16,3.25,3.25,0,0,1-4.17.1c0,3,4.16,4.39,5.84,1.77.19.19.39.37.58.54a14.81,14.81,0,0,1-13.53,2.62c5.11,10.13,19.89,10.61,25.66.87l-.31-.29c.2,0,.37-.06.55-.09a2,2,0,0,1-.24.38c5.69,5.75,13.83,11.95,9.73,21.09-2.4,5.36-9.69,9.52-14.15,13.09l.06.06c-10.24,1.93-14.5,14.74-7.44,22.42a13.69,13.69,0,0,1,9.24-18.44A13.66,13.66,0,0,0,209.09,356a13.71,13.71,0,0,1,.49-11.59c-.93,7.4,6.39,13.76,13.31,13.72a13.37,13.37,0,0,1,1.38-20l.66.39.56-.68a.54.54,0,0,0-.48-.23.25.25,0,0,1,.14-.08c.35-.22.71-.43,1.08-.62l-.46.58.23.41a13.59,13.59,0,0,1,5.55,3.69,13.58,13.58,0,0,0-4-5.26,12.48,12.48,0,0,1,4.58-.87,12.94,12.94,0,0,0-3-2.22l1.44-1.76c7.46,1.84,8.65,12.48,1.63,15.8,10.65-1.11,16.52-13.68,10.4-22.56a9.58,9.58,0,0,1,6.78,7.88A9.71,9.71,0,0,0,254,317.81a7.77,7.77,0,0,1,4.75,6.95A7.6,7.6,0,0,0,262,316a8,8,0,0,0,7.61-9.36s0,0,0,0c-4,5.58-12.19-1.84-6.91-6.46a8.6,8.6,0,0,1,1.63.37,8.07,8.07,0,0,0-8.19-4l-5.26-3.9q.93-.53,1.83-1.11a24.24,24.24,0,0,1-1.87-1.78,8.25,8.25,0,0,1,7,2.56,8.35,8.35,0,0,0-8.15-10.69,8.39,8.39,0,0,0,3.1-9.09,8.34,8.34,0,0,1-13.91-3.36l-.12.12c-.28-7.46,11.81-4,8.4,1.63a6.26,6.26,0,0,0,.33-8.89,6.26,6.26,0,0,0,2.35-8.36c.53,3.15-3.16,5.44-5.9,4.46,2.14-4.07,4.73-8.14,6.27-12.49C272,260,296.65,244,298.38,219.84A65.42,65.42,0,0,0,294.52,194c-1.63-4.75-2.69-7-2.41-11.77l1.32-22.39c15.65.67,14.59,25.12-.09,27.23,13.34-.23,21.8-15,15.5-26.67-6.42-11.9-23.92-12.48-31.11-1-5.67-10.63-12.11-22.76-11.1-35.23.87-10.8,7.94-20.53,17.1-26a11.63,11.63,0,0,0,19.78-2c.89,3.29,4.46,13.54.91,16.27-4,3.08-6.22-3.18-5.74-6.12-2.3,1.91-6.73,5.75-5.76,9.12,1.25,4.32,8.39,4.41,12,4,0,0-3.59,13.44,4.54,16.83-4.8-3.49,4.23-16.78,6-19.77,5.43-9.11,6.09,7.2,2.16,8.24,10.88,4.5,12.06-6.4,14.14-14.24,2.93-11,12.75,1.91,4,6.42C343.37,113.75,343,107.13,339.45,100.69ZM207.82,72.55l-1.1-2.76,7.34.13Zm80.82,26.34a8.62,8.62,0,0,1-4.26-1.13,28.86,28.86,0,0,1,12.09-3.88A8.61,8.61,0,0,1,288.64,98.89Z"/></svg>x="0" y="415" fill="#000000" font-size="5px" font-weight="bold" font-family="'Helvetica Neue', Helvetica, Arial-Unicode, Arial, Sans-serif">Created by Luis Herrera</text><text x="0" y="420" fill="#000000" font-size="5px" font-weight="bold" font-family="'Helvetica Neue', Helvetica, Arial-Unicode, Arial, Sans-serif">from the Noun Project</text></svg>
